<?xml version="1.0" standalone="no"?><!DOCTYPE svg PUBLIC "-//W3C//DTD SVG 1.1//EN" "http://www.w3.org/Graphics/SVG/1.1/DTD/svg11.dtd"><svg t="1628205459887" class="icon" viewBox="0 0 1024 1024" version="1.1" xmlns="http://www.w3.org/2000/svg" p-id="2060" xmlns:xlink="http://www.w3.org/1999/xlink" width="200" height="200"><defs><style type="text/css"></style></defs><path d="M512 646.186667c-74.026667 0-134.186667-60.16-134.186667-134.186667s60.16-134.186667 134.186667-134.186667 134.186667 60.16 134.186667 134.186667-60.16 134.186667-134.186667 134.186667z m0-225.706667c-50.56 0-91.52 41.173333-91.52 91.52s41.173333 91.52 91.52 91.52 91.52-41.173333 91.52-91.52-40.96-91.52-91.52-91.52z" p-id="2061"></path><path d="M512 759.253333c-158.72 0-259.84-64.64-316.8-118.826666-61.866667-59.093333-85.973333-117.973333-87.04-120.533334-1.92-5.12-1.92-10.666667 0-15.786666 1.066667-2.346667 99.2-239.36 403.84-239.36 158.72 0 259.84 64.64 316.8 118.826666 61.866667 59.093333 85.973333 117.973333 87.04 120.533334 1.92 5.12 1.92 10.666667 0 15.786666-1.066667 2.346667-99.2 239.36-403.84 239.36zM151.466667 512c18.986667 39.253333 113.066667 204.373333 360.533333 204.373333 245.333333 0 341.546667-166.186667 360.533333-204.586666-18.986667-39.253333-113.28-204.373333-360.533333-204.373334-245.333333 0-341.546667 166.4-360.533333 204.586667z" p-id="2062"></path></svg>