<?xml version="1.0" standalone="no"?><!DOCTYPE svg PUBLIC "-//W3C//DTD SVG 1.1//EN" "http://www.w3.org/Graphics/SVG/1.1/DTD/svg11.dtd"><svg t="1627034519404" class="icon" viewBox="0 0 1024 1024" version="1.1" xmlns="http://www.w3.org/2000/svg" p-id="19811" xmlns:xlink="http://www.w3.org/1999/xlink" width="200" height="200"><defs><style type="text/css">@font-face { font-family: "feedback-iconfont"; src: url("//at.alicdn.com/t/font_1031158_1uhr8ri0pk5.eot?#iefix") format("embedded-opentype"), url("//at.alicdn.com/t/font_1031158_1uhr8ri0pk5.woff2") format("woff2"), url("//at.alicdn.com/t/font_1031158_1uhr8ri0pk5.woff") format("woff"), url("//at.alicdn.com/t/font_1031158_1uhr8ri0pk5.ttf") format("truetype"), url("//at.alicdn.com/t/font_1031158_1uhr8ri0pk5.svg#iconfont") format("svg"); }
</style></defs><path d="M480.277333 242.901333c0.256 12.757333-10.026667 23.381333-23.488 23.637334-13.44 0.405333-24.533333-9.685333-24.789333-22.528-0.341333-12.672 10.282667-23.253333 23.744-23.573334 13.461333-0.256 24.213333 9.770667 24.533333 22.464zM592.064 242.901333c0.192 12.757333-10.112 23.381333-23.552 23.637334-13.376 0.405333-24.512-9.685333-24.789333-22.528-0.256-12.672 10.368-23.253333 23.744-23.573334 13.418667-0.256 24.277333 9.770667 24.597333 22.464zM536.213333 552.917333c0.298667 12.842667-10.282667 23.381333-23.552 23.616-13.568 0.32-24.597333-9.706667-24.789333-22.549333-0.405333-12.778667 10.218667-23.189333 23.616-23.466667 13.418667-0.341333 24.448 9.706667 24.725333 22.4zM536.213333 678.037333c0.298667 12.714667-10.282667 23.296-23.552 23.573334-13.504 0.256-24.597333-9.749333-24.853333-22.592-0.341333-12.714667 10.282667-23.253333 23.744-23.552 13.354667-0.32 24.384 9.792 24.661333 22.570666zM536.213333 803.050667c0.298667 12.714667-10.282667 23.296-23.594666 23.573333-13.525333 0.341333-24.533333-9.685333-24.810667-22.506667-0.341333-12.821333 10.282667-23.253333 23.744-23.573333 13.333333-0.384 24.32 9.6 24.661333 22.506667z" p-id="19812"></path><path d="M511.936 1024C322.581333 1024 168.533333 876.928 168.533333 696.192c0-130.474667 79.786667-246.4 202.090667-298.858667-34.346667-34.56-54.08-80.576-54.08-128.874666 0-103.146667 87.658667-187.072 195.392-187.072 107.818667 0 195.52 83.925333 195.52 187.072 0 48.448-19.733333 94.464-54.101333 128.917333 122.368 52.522667 202.197333 168.426667 202.154666 298.816C855.509333 876.928 701.376 1024 511.936 1024z m0-899.946667c-84.224 0-152.725333 64.789333-152.725333 144.405334 0 46.805333 24.469333 91.029333 65.472 118.293333a21.333333 21.333333 0 0 1-5.546667 38.165333C294.762667 463.125333 211.2 572.138667 211.2 696.192 211.2 853.418667 346.112 981.333333 511.936 981.333333c165.909333 0 300.885333-127.914667 300.885333-285.141333 0.042667-123.989333-83.584-232.981333-208.106666-271.274667a21.333333 21.333333 0 0 1-5.482667-38.208c41.045333-27.050667 65.536-71.253333 65.536-118.250666 0.021333-79.616-68.544-144.405333-152.832-144.405334z" p-id="19813"></path><path d="M688.896 124.053333H335.104a21.333333 21.333333 0 0 1 0-42.666666h353.792a21.333333 21.333333 0 1 1 0 42.666666zM573.397333 42.666667h-122.794666a21.333333 21.333333 0 0 1 0-42.666667h122.794666a21.333333 21.333333 0 1 1 0 42.666667z" p-id="19814"></path><path d="M91.669333 535.744a21.333333 21.333333 0 0 1-20.245333-28.074667c17.045333-51.413333 47.104-86.976 89.365333-105.706666 81.877333-36.373333 178.837333 5.589333 182.933334 7.402666a21.333333 21.333333 0 0 1-17.194667 39.061334c-0.832-0.362667-84.138667-36.138667-148.608-7.381334-30.698667 13.696-52.906667 40.618667-66.005333 80.064a21.333333 21.333333 0 0 1-20.245334 14.634667zM932.330667 535.744a21.333333 21.333333 0 0 1-20.245334-14.634667c-13.098667-39.466667-35.306667-66.389333-66.048-80.085333-64.448-28.693333-147.754667 7.04-148.565333 7.402667a21.333333 21.333333 0 0 1-17.173333-39.061334c4.096-1.792 100.928-43.690667 182.869333-7.424 42.24 18.730667 72.341333 54.314667 89.408 105.728a21.333333 21.333333 0 0 1-20.245333 28.074667z" p-id="19815"></path></svg>