<?xml version="1.0" standalone="no"?><!DOCTYPE svg PUBLIC "-//W3C//DTD SVG 1.1//EN" "http://www.w3.org/Graphics/SVG/1.1/DTD/svg11.dtd"><svg t="1628294745718" class="icon" viewBox="0 0 1024 1024" version="1.1" xmlns="http://www.w3.org/2000/svg" p-id="7582" xmlns:xlink="http://www.w3.org/1999/xlink" width="200" height="200"><defs><style type="text/css"></style></defs><path d="M513 507.326m-448 0a448 448 0 1 0 896 0 448 448 0 1 0-896 0Z" fill="#5E7BF7" p-id="7583"></path><path d="M784.261 753.251L581.739 550.729c30.422-38.268 48.607-86.71 48.607-139.408 0-123.784-100.288-224.13-224-224.13s-224 100.346-224 224.13 100.288 224.13 224 224.13c53.645 0 102.877-18.878 141.446-50.343l202.306 202.306c4.667 4.667 12.304 4.667 16.971 0l17.192-17.192c4.667-4.667 4.667-12.304 0-16.971z m-557.915-341.93c0-99.469 80.589-180.104 180-180.104s180 80.635 180 180.104-80.589 180.104-180 180.104-180-80.635-180-180.104z" fill="#ffffff" p-id="7584"></path><path d="M350.764175 518.000605a60.553 27.515 44.999 1 0 38.911407-38.912766 60.553 27.515 44.999 1 0-38.911407 38.912766Z" fill="#ffffff" p-id="7585"></path><path d="M427.773 490.504a27.123 17.928 0 1 0 54.246 0 27.123 17.928 0 1 0-54.246 0Z" fill="#5E7BF7" p-id="7586"></path></svg>