<?xml version="1.0" standalone="no"?><!DOCTYPE svg PUBLIC "-//W3C//DTD SVG 1.1//EN" "http://www.w3.org/Graphics/SVG/1.1/DTD/svg11.dtd"><svg t="1627003893909" class="icon" viewBox="0 0 1024 1024" version="1.1" xmlns="http://www.w3.org/2000/svg" p-id="19561" xmlns:xlink="http://www.w3.org/1999/xlink" width="200" height="200"><defs><style type="text/css">@font-face { font-family: "feedback-iconfont"; src: url("//at.alicdn.com/t/font_1031158_1uhr8ri0pk5.eot?#iefix") format("embedded-opentype"), url("//at.alicdn.com/t/font_1031158_1uhr8ri0pk5.woff2") format("woff2"), url("//at.alicdn.com/t/font_1031158_1uhr8ri0pk5.woff") format("woff"), url("//at.alicdn.com/t/font_1031158_1uhr8ri0pk5.ttf") format("truetype"), url("//at.alicdn.com/t/font_1031158_1uhr8ri0pk5.svg#iconfont") format("svg"); }
</style></defs><path d="M868.4544 960.256c-14.7456 0-29.4912-5.7856-40.5504-17.2032l-200.4992-207.872c-21.6064-22.3744-20.9408-58.0608 1.4336-79.616 22.3744-21.6064 58.0096-20.9408 79.616 1.4336l200.4992 207.872c21.6064 22.3744 20.9408 58.0608-1.4336 79.616a55.97696 55.97696 0 0 1-39.0656 15.7696z" fill="#756AF6" p-id="19562"></path><path d="M868.4544 937.216c-8.704 0-17.408-3.4304-23.9616-10.1888l-200.4992-207.872a33.2544 33.2544 0 0 1 0.8704-47.0528 33.2544 33.2544 0 0 1 47.0528 0.8704l200.4992 207.872a33.2544 33.2544 0 0 1-0.8704 47.0528 33.09056 33.09056 0 0 1-23.0912 9.3184z" fill="#8380FF" p-id="19563"></path><path d="M868.4544 919.296c-4.0448 0-8.0384-1.5872-11.0592-4.7104l-200.4992-207.872a15.31392 15.31392 0 0 1 0.4096-21.7088 15.31392 15.31392 0 0 1 21.7088 0.4096l200.4992 207.872a15.31392 15.31392 0 0 1-0.4096 21.7088c-2.9696 2.8672-6.8096 4.3008-10.6496 4.3008z" fill="#B1B1FC" p-id="19564"></path><path d="M487.8848 475.0336m-418.4576 0a418.4576 418.4576 0 1 0 836.9152 0 418.4576 418.4576 0 1 0-836.9152 0Z" fill="#EC6920" p-id="19565"></path><path d="M487.8848 462.9504m-363.2128 0a363.2128 363.2128 0 1 0 726.4256 0 363.2128 363.2128 0 1 0-726.4256 0Z" fill="#F9832B" p-id="19566"></path><path d="M487.8848 452.7616m-317.184 0a317.184 317.184 0 1 0 634.368 0 317.184 317.184 0 1 0-634.368 0Z" fill="#F99543" p-id="19567"></path><path d="M487.8848 444.0064m-269.7728 0a269.7728 269.7728 0 1 0 539.5456 0 269.7728 269.7728 0 1 0-539.5456 0Z" fill="#FFB15C" p-id="19568"></path><path d="M482.7648 609.9968c-67.6352 0-125.7472-45.8752-141.312-111.5136-11.0592-46.6944-58.0608-75.6736-104.7552-64.6144-22.6304 5.376-41.8304 19.2-54.016 39.0144-12.1856 19.8144-15.9744 43.1616-10.5984 65.792 34.2528 144.4864 161.9968 245.4016 310.6816 245.4016 47.9744 0 87.04-39.0656 87.04-87.04s-39.0144-87.04-87.04-87.04z" fill="#EC6920" p-id="19569"></path><path d="M482.7648 753.3568c-134.3488 0-249.8048-91.1872-280.7808-221.7984-7.168-30.2592 11.52-60.6208 41.8304-67.7888 30.3104-7.168 60.6208 11.52 67.7888 41.8304 18.8416 79.5648 89.2416 135.1168 171.1616 135.1168 31.1296 0 56.32 25.1904 56.32 56.32s-25.1904 56.32-56.32 56.32z" fill="#756AF6" p-id="19570"></path><path d="M482.7648 730.3168c-123.648 0-229.888-83.9168-258.3552-204.032-4.2496-17.8688 6.8096-35.84 24.6784-40.0384 17.8688-4.2496 35.84 6.8096 40.0384 24.6784 21.3504 90.0096 100.9664 152.832 193.5872 152.832 18.3808 0 33.28 14.8992 33.28 33.28s-14.848 33.28-33.2288 33.28z" fill="#8380FF" p-id="19571"></path><path d="M482.7648 712.3968c-115.3024 0-214.3744-78.2336-240.9472-190.2592-1.9456-8.2432 3.1232-16.5376 11.4176-18.4832 8.2432-1.9968 16.5376 3.1232 18.4832 11.4176 23.2448 98.0992 110.0288 166.656 211.0464 166.656 8.4992 0 15.36 6.8608 15.36 15.36s-6.8608 15.3088-15.36 15.3088z" fill="#B1B1FC" p-id="19572"></path></svg>