<?xml version="1.0" standalone="no"?><!DOCTYPE svg PUBLIC "-//W3C//DTD SVG 1.1//EN" "http://www.w3.org/Graphics/SVG/1.1/DTD/svg11.dtd"><svg t="1628205510475" class="icon" viewBox="0 0 1024 1024" version="1.1" xmlns="http://www.w3.org/2000/svg" p-id="5668" xmlns:xlink="http://www.w3.org/1999/xlink" width="200" height="200"><defs><style type="text/css"></style></defs><path d="M58.304 754.944c0 116.416 94.4 210.816 210.816 210.816s210.816-94.4 210.816-210.816L479.936 544.128 269.056 544.128C152.64 544.128 58.304 638.528 58.304 754.944zM403.392 754.944c0 74.112-60.288 134.336-134.336 134.336s-134.336-60.288-134.336-134.336 60.288-134.336 134.336-134.336l134.336 0L403.392 754.944zM965.696 269.056c0-116.416-94.4-210.816-210.816-210.816-116.416 0-210.816 94.4-210.816 210.816l0 210.816 210.816 0C871.36 479.872 965.696 385.472 965.696 269.056zM620.544 269.056c0-74.112 60.288-134.336 134.336-134.336s134.336 60.288 134.336 134.336c0 74.112-60.288 134.336-134.336 134.336L620.544 403.392 620.544 269.056zM269.056 479.872l210.816 0L479.872 269.056c0-116.416-94.4-210.816-210.816-210.816-116.416 0-210.816 94.4-210.816 210.816C58.304 385.472 152.64 479.872 269.056 479.872zM269.056 134.72c74.112 0 134.336 60.288 134.336 134.336l0 134.336L269.056 403.392c-74.112 0-134.336-60.288-134.336-134.336C134.72 195.008 195.008 134.72 269.056 134.72zM754.944 544.128 544.128 544.128l0 210.816c0 116.416 94.4 210.816 210.816 210.816 116.416 0 210.816-94.4 210.816-210.816S871.36 544.128 754.944 544.128zM754.944 889.28c-74.112 0-134.336-60.288-134.336-134.336L620.608 620.608l134.336 0c74.112 0 134.336 60.288 134.336 134.336S828.992 889.28 754.944 889.28z" p-id="5669"></path></svg>